<svg xmlns="http://www.w3.org/2000/svg" width="20" height="20" viewBox="0 0 20 20" fill="none">
  <path d="M10 2C6 2 3 5 3 9C3 12 5 15 8 16C8.5 16.1 8.7 15.8 8.7 15.5C8.7 15.3 8.7 14.7 8.7 14C6 14.5 5.5 13 5.5 13C5 12 4.5 11.7 4.5 11.7C4 11.2 4.5 11.2 4.5 11.2C5 11.2 5.5 11.7 5.5 11.7C6 12.2 6.7 12.5 7 12.5C7.2 12.2 7.5 12 8 11.8C8.2 10.8 8.7 10.2 9.2 9.9C7 9.7 4.8 8.8 4.8 6.5C4.8 5.8 5 5.2 5.5 4.7C5.4 4.5 5 3.8 5.7 3C5.7 3 6.2 2.8 8.7 3.7C9.5 3.5 10.5 3.5 11.3 3.7C13.8 2.8 14.3 3 14.3 3C15 3.8 14.6 4.5 14.5 4.7C15 5.2 15.2 5.8 15.2 6.5C15.2 8.8 13 9.7 10.8 9.9C11.2 10.3 11.5 11 11.5 12C11.5 13.3 11.5 14.3 11.5 15.5C11.5 15.8 11.7 16.1 12.2 16C15 15 17 12 17 9C17 5 14 2 10 2Z" fill="currentColor"/>
</svg>
