<svg xmlns="http://www.w3.org/2000/svg" width="120" height="120" viewBox="0 0 120 120" fill="none">
  <rect width="120" height="120" rx="8" fill="#181717"/>
  <path d="M60 20C45 20 32 27 25 38C18 49 18 63 25 74C32 85 45 92 60 92C75 92 88 85 95 74C102 63 102 49 95 38C88 27 75 20 60 20ZM60 88C47 88 36 82 30 73C24 64 24 53 30 44C36 35 47 29 60 29C73 29 84 35 90 44C96 53 96 64 90 73C84 82 73 88 60 88Z" fill="white"/>
  <path d="M50 45C50 43 51 42 52 42C53 42 54 43 54 45C54 47 53 48 52 48C51 48 50 47 50 45ZM58 45C58 43 59 42 60 42C61 42 62 43 62 45C62 47 61 48 60 48C59 48 58 47 58 45ZM66 45C66 43 67 42 68 42C69 42 70 43 70 45C70 47 69 48 68 48C67 48 66 47 66 45Z" fill="white"/>
  <path d="M45 55C45 54 46 53 47 53C48 53 49 54 49 55C49 56 48 57 47 57C46 57 45 56 45 55ZM53 55C53 54 54 53 55 53C56 53 57 54 57 55C57 56 56 57 55 57C54 57 53 56 53 55ZM61 55C61 54 62 53 63 53C64 53 65 54 65 55C65 56 64 57 63 57C62 57 61 56 61 55ZM69 55C69 54 70 53 71 53C72 53 73 54 73 55C73 56 72 57 71 57C70 57 69 56 69 55Z" fill="white"/>
  <path d="M40 65C40 64 41 63 42 63C43 63 44 64 44 65C44 66 43 67 42 67C41 67 40 66 40 65ZM48 65C48 64 49 63 50 63C51 63 52 64 52 65C52 66 51 67 50 67C49 67 48 66 48 65ZM56 65C56 64 57 63 58 63C59 63 60 64 60 65C60 66 59 67 58 67C57 67 56 66 56 65ZM64 65C64 64 65 63 66 63C67 63 68 64 68 65C68 66 67 67 66 67C65 67 64 66 64 65ZM72 65C72 64 73 63 74 63C75 63 76 64 76 65C76 66 75 67 74 67C73 67 72 66 72 65Z" fill="white"/>
</svg>
